#!OML:ASF H:\MichaelJackson\Top Level 1\Subject 1\Session 1\male.ASF
:FULLY-SPECIFIED
:DEGREES
306
root 9.07639 15.423 -23.81 12.7307 59.6183 16.6795
lowerback 9.57764 -3.30576 -8.62294
upperback 5.13404 -4.92875 -4.11735
thorax 0.392745 -2.49826 0.959214
lowerneck -5.47259 -10.4712 -2.45119
upperneck -2.24921 -13.8796 10.596
head 1.22991 -6.81772 3.352
rclavicle 8.34896e-015 -4.53229e-014
rhumerus -43.933 70.7778 -78.666
rradius 81.414
rwrist 5.63568
rhand 2.13857 -6.81425
rfingers 7.12502
rthumb 27.6371 -754.804
lclavicle 8.34896e-015 -4.53229e-014
lhumerus -42.0347 -41.8041 98.7517
lradius 59.364
lwrist 21.8828
lhand 13.4017 11.5667
lfingers 7.12502
lthumb 38.3451 37.2712
rfemur -53.4184 -20.1509 36.7408
rtibia 56.9878
rfoot 18.0248 14.8159
rtoes 8.41611
lfemur -16.1448 18.7324 -17.9951
ltibia 52.5095
lfoot -16.5511 -26.8834
ltoes 58.7812
307
root 9.03556 15.4426 -23.7909 12.3034 58.1706 15.8217
lowerback 9.73871 -3.19862 -8.51413
upperback 5.12525 -4.80127 -4.11015
thorax 0.275237 -2.43 0.909921
lowerneck -5.55651 -10.361 -2.27002
upperneck -2.6718 -13.7054 10.7194
head 1.09146 -6.74108 3.37883
rclavicle -3.33958e-014 -1.43125e-014
rhumerus -33.9357 70.9667 -68.9449
rradius 81.2445
rwrist 3.93263
rhand 5.47149 -5.7173
rfingers 7.12502
rthumb 30.8196 -753.153
lclavicle -3.33958e-014 -1.43125e-014
lhumerus -42.4065 -42.5304 99.1545
lradius 59.1219
lwrist 21.3914
lhand 13.5646 11.4558
lfingers 7.12502
lthumb 38.4988 37.1176
rfemur -55.0266 -21.1301 37.4161
rtibia 57.7782
rfoot 17.2081 17.352
rtoes -0.30275
lfemur -16.3346 19.0629 -17.9456
ltibia 52.1156
lfoot -17.3099 -25.9107
ltoes 58.5917
308
root 8.99658 15.4626 -23.7685 11.9937 56.7425 15.0651
lowerback 9.84809 -3.08154 -8.39387
upperback 5.09417 -4.65633 -4.09178
thorax 0.161636 -2.35331 0.861405
lowerneck -5.62201 -10.273 -2.12116
upperneck -3.05587 -13.5619 10.814
head 0.964822 -6.67992 3.39987
rclavicle -7.5737e-014 5.48646e-014
rhumerus -24.4888 69.7552 -60.0103
rradius 80.6874
rwrist 2.0381
rhand 8.63216 -4.57395
rfingers 7.12502
rthumb 33.8279 -751.396
lclavicle -7.5737e-014 5.48646e-014
lhumerus -42.8265 -43.2648 99.6528
lradius 58.8983
lwrist 20.7941
lhand 13.8585 11.3357
lfingers 7.12502
lthumb 38.7761 36.9195
rfemur -56.5527 -21.835 37.8457
rtibia 58.5347
rfoot 15.7572 19.257
rtoes -8.04804
lfemur -16.5467 19.4551 -17.9258
ltibia 51.7364
lfoot -18.2122 -24.8118
ltoes 58.2067
309
root 8.95906 15.4833 -23.7423 11.7781 55.3449 14.3951
lowerback 9.90836 -2.94871 -8.25837
upperback 5.04675 -4.48549 -4.0701
thorax 0.0553108 -2.26391 0.802785
lowerneck -5.66427 -10.2142 -1.97222
upperneck -3.41346 -13.4593 10.8753
head 0.842986 -6.6399 3.40836
rclavicle 5.08889e-014 0
rhumerus -17.0391 67.2029 -53.3766
rradius 79.73
rwrist -0.0758576
rhand 11.4369 -3.63621
rfingers 7.12502
rthumb 36.4879 -749.831
lclavicle 5.08889e-014 0
lhumerus -43.3004 -44.0231 100.237
lradius 58.7077
lwrist 20.1567
lhand 14.2114 11.1762
lfingers 7.12502
lthumb 39.1088 36.665
rfemur -57.9538 -22.2722 37.9888
rtibia 59.2337
rfoot 13.8786 20.3628
rtoes -14.2127
lfemur -16.7654 19.9095 -17.9263
ltibia 51.3578
lfoot -19.2093 -23.5771
ltoes 57.616
310
root 8.92279 15.5047 -23.7118 11.6303 54.0005 13.8008
lowerback 9.93082 -2.79662 -8.09814
upperback 4.99151 -4.28355 -4.05424
thorax -0.0425032 -2.15894 0.719406
lowerneck -5.67598 -10.1929 -1.78797
upperneck -3.75854 -13.4095 10.9017
head 0.718124 -6.62776 3.39818
rclavicle -6.97734e-014 3.81667e-014
rhumerus -11.9739 63.4701 -49.4746
rradius 78.4153
rwrist -2.41315
rhand 13.6586 -3.19967
rfingers 7.12502
rthumb 38.5875 -748.837
lclavicle -6.97734e-014 3.81667e-014
lhumerus -43.8331 -44.8335 100.9
lradius 58.5645
lwrist 19.5531
lhand 14.5471 10.9598
lfingers 7.12502
lthumb 39.4252 36.3567
rfemur -59.1869 -22.47 37.8091
rtibia 59.8525
rfoot 11.8304 20.584
rtoes -18.6093
lfemur -16.9631 20.394 -17.931
ltibia 50.9592
lfoot -20.2153 -22.2327
ltoes 56.8561
311
root 8.88781 15.5269 -23.6772 11.5223 52.7357 13.2701
lowerback 9.92883 -2.62269 -7.89893
upperback 4.93684 -4.04647 -4.05221
thorax -0.131686 -2.03608 0.595285
lowerneck -5.64675 -10.2174 -1.53661
upperneck -4.10615 -13.4234 10.8959
head 0.582162 -6.65007 3.36572
rclavicle -4.01545e-014 1.59028e-015
rhumerus -8.8981 58.7091 -47.9201
rradius 76.8463
rwrist -4.95187
rhand 15.0146 -3.5401
rfingers 7.12502
rthumb 39.8654 -748.807
lclavicle -4.01545e-014 1.59028e-015
lhumerus -44.4282 -45.7307 101.639
lradius 58.48
lwrist 19.0503
lhand 14.8098 10.6978
lfingers 7.12502
lthumb 39.6726 36.0218
rfemur -60.2133 -22.4646 37.2791
rtibia 60.37
rfoot 9.8784 19.9374
rtoes -21.2874
lfemur -17.107 20.8554 -17.9169
ltibia 50.5176
lfoot -21.1181 -20.8572
ltoes 56.0343
312
root 8.85433 15.5498 -23.6384 11.4311 51.5756 12.7955
lowerback 9.91688 -2.42657 -7.65081
upperback 4.88882 -3.77386 -4.0683
thorax -0.213771 -1.89489 0.42094
lowerneck -5.56916 -10.2937 -1.19674
upperneck -4.46535 -13.509 10.8602
head 0.42993 -6.71171 3.30924
rclavicle 1.07344e-014 7.95139e-016
rhumerus -7.1839 53.0525 -48.0605
rradius 75.1806
rwrist -7.65465
rhand 15.1417 -4.84207
rfingers 7.12502
rthumb 39.9851 -750.073
lclavicle 1.07344e-014 7.95139e-016
lhumerus -45.091 -46.7391 102.456
lradius 58.4619
lwrist 18.6918
lhand 14.9694 10.4249
lfingers 7.12502
lthumb 39.8228 35.7042
rfemur -60.9995 -22.2939 36.3778
rtibia 60.7686
rfoot 8.22213 18.5463
rtoes -22.4458
lfemur -17.1631 21.2341 -17.8611
ltibia 50.0113
lfoot -21.8089 -19.5768
ltoes 55.3289
313
root 8.82266 15.573 -23.5954 11.3369 50.5373 12.3664
lowerback 9.90595 -2.21079 -7.34816
upperback 4.84951 -3.46954 -4.09927
thorax -0.291011 -1.73723 0.197177
lowerneck -5.44159 -10.4239 -0.765233
upperneck -4.83729 -13.6679 10.7953
head 0.260507 -6.81387 3.22986
rclavicle -4.05521e-014 1.98785e-014
rhumerus -6.27486 46.6522 -49.279
rradius 73.6105
rwrist -10.4821
rhand 13.6444 -7.11748
rfingers 7.12502
rthumb 38.5742 -752.758
lclavicle -4.05521e-014 1.98785e-014
lhumerus -45.8222 -47.8601 103.359
lradius 58.5095
lwrist 18.4904
lhand 15.0304 10.1751
lfingers 7.12502
lthumb 39.8802 35.4371
rfemur -61.5207 -21.9858 35.0979
rtibia 61.0355
rfoot 6.96469 16.605
rtoes -22.3017
lfemur -17.1033 21.4743 -17.7397
ltibia 49.4252
lfoot -22.1966 -18.5538
ltoes 54.982
314
root 8.79312 15.5961 -23.5484 11.2281 49.6262 11.9748
lowerback 9.90097 -1.98083 -6.99672
upperback 4.81756 -3.14187 -4.13395
thorax -0.364428 -1.56751 -0.0606066
lowerneck -5.2693 -10.6039 -0.259756
upperneck -5.21544 -13.894 10.6996
head 0.0772529 -6.95302 3.13127
rclavicle -2.92213e-014 4.45278e-014
rhumerus -5.77653 39.7217 -51.092
rradius 72.3332
rwrist -13.4024
rhand 10.2059 -10.1714
rfingers 7.12502
rthumb 35.3216 -756.652
lclavicle -2.92213e-014 4.45278e-014
lhumerus -46.6163 -49.0671 104.356
lradius 58.6147
lwrist 18.4288
lhand 15.0196 9.9907
lfingers 7.12502
lthumb 39.8701 35.2558
rfemur -61.7618 -21.5557 33.4425
rtibia 61.1629
rfoot 6.11601 14.3316
rtoes -21.044
lfemur -16.9135 21.5454 -17.5395
ltibia 48.7554
lfoot -22.2564 -17.9004
ltoes 55.1571
315
root 8.76593 15.6186 -23.497 11.1006 48.8348 11.6154
lowerback 9.90045 -1.74428 -6.6138
upperback 4.78915 -2.80253 -4.15576
thorax -0.433467 -1.3921 -0.324847
lowerneck -5.06332 -10.8242 0.285109
upperneck -5.58679 -14.1735 10.5691
head -0.112878 -7.12105 3.01883
rclavicle -3.97569e-016 9.54166e-015
rhumerus -5.45252 32.5546 -53.1548
rradius 71.5187
rwrist -16.402
rhand 4.75228 -13.6509
rfingers 7.12502
rthumb 30.1337 -761.214
lclavicle -3.97569e-016 9.54166e-015
lhumerus -47.4593 -50.3102 105.448
lradius 58.7629
lwrist 18.4689
lhand 14.9771 9.90349
lfingers 7.12502
lthumb 39.8301 35.1806
rfemur -61.7175 -21.0051 31.4279
rtibia 61.1494
rfoot 5.62055 11.9303
rtoes -18.8672
lfemur -16.5947 21.4485 -17.2598
ltibia 48.0104
lfoot -22.0266 -17.6317
ltoes 55.8464
316
root 8.74121 15.64 -23.441 10.9549 48.146 11.2832
lowerback 9.89686 -1.51185 -6.22656
upperback 4.75947 -2.46769 -4.14191
thorax -0.495535 -1.21986 -0.555565
lowerneck -4.83821 -11.0684 0.819699
upperneck -5.93458 -14.4845 10.3971
head -0.30062 -7.30501 2.8986
rclavicle -2.84262e-014 -2.38542e-015
rhumerus -5.17715 25.5061 -55.2285
rradius 71.2646
rwrist -19.4342
rhand -2.45532 -17.1378
rfingers 7.12502
rthumb 23.2366 -765.756
lclavicle -2.84262e-014 -2.38542e-015
lhumerus -48.3217 -51.5162 106.631
lradius 58.9338
lwrist 18.5599
lhand 14.9382 9.92808
lfingers 7.12502
lthumb 39.7935 35.2161
rfemur -61.3946 -20.3273 29.0869
rtibia 60.9996
rfoot 5.40505 9.56059
rtoes -15.9475
lfemur -16.1644 21.2173 -16.9115
ltibia 47.211
lfoot -21.6068 -17.6456
ltoes 56.8514
